<svg width="40" height="40" viewBox="0 0 40 40" fill="none" xmlns="http://www.w3.org/2000/svg">
  <defs>
    <linearGradient id="bgDark" x1="0" y1="0" x2="40" y2="40" gradientUnits="userSpaceOnUse">
      <stop offset="0%" stop-color="#4C1D95"/>
      <stop offset="100%" stop-color="#1E3A8A"/>
    </linearGradient>
    <linearGradient id="glowDark" x1="20" y1="8" x2="20" y2="32" gradientUnits="userSpaceOnUse">
      <stop offset="0%" stop-color="#FCD34D"/>
      <stop offset="100%" stop-color="#F59E0B"/>
    </linearGradient>
  </defs>
  <!-- 圆角背景 -->
  <rect width="40" height="40" rx="10" fill="url(#bgDark)"/>
  <!-- 中心：闪电+脑组合 = 智能执行 -->
  <path d="M22 8L14 20H19L17 32L26 18H21Z" fill="url(#glowDark)"/>
  <!-- 左侧技能卡片层叠 -->
  <rect x="5" y="14" width="8" height="6" rx="1.2" fill="rgba(255,255,255,0.2)" stroke="rgba(255,255,255,0.35)" stroke-width="0.5"/>
  <rect x="6" y="12.5" width="8" height="6" rx="1.2" fill="rgba(255,255,255,0.13)" stroke="rgba(255,255,255,0.25)" stroke-width="0.5"/>
  <!-- 右侧技能卡片层叠 -->
  <rect x="27" y="20" width="8" height="6" rx="1.2" fill="rgba(255,255,255,0.2)" stroke="rgba(255,255,255,0.35)" stroke-width="0.5"/>
  <rect x="28" y="18.5" width="8" height="6" rx="1.2" fill="rgba(255,255,255,0.13)" stroke="rgba(255,255,255,0.25)" stroke-width="0.5"/>
  <!-- 底部连接点 -->
  <circle cx="12" cy="30" r="1.5" fill="rgba(255,255,255,0.3)"/>
  <circle cx="20" cy="33" r="1.5" fill="rgba(255,255,255,0.3)"/>
  <circle cx="28" cy="30" r="1.5" fill="rgba(255,255,255,0.3)"/>
  <line x1="12" y1="30" x2="20" y2="33" stroke="rgba(255,255,255,0.18)" stroke-width="0.8"/>
  <line x1="20" y1="33" x2="28" y2="30" stroke="rgba(255,255,255,0.18)" stroke-width="0.8"/>
</svg>